<mxfile host="app.diagrams.net" agent="Mozilla/5.0 (Windows NT 10.0; Win64; x64) AppleWebKit/537.36 (KHTML, like Gecko) Chrome/134.0.0.0 Safari/537.36" version="26.2.8">
  <diagram name="第 1 页" id="GskqJcH7MVZhV6aUFAPI">
    <mxGraphModel dx="1002" dy="597" grid="1" gridSize="10" guides="1" tooltips="1" connect="1" arrows="1" fold="1" page="1" pageScale="1" pageWidth="827" pageHeight="1169" math="0" shadow="0">
      <root>
        <mxCell id="0" />
        <mxCell id="1" parent="0" />
        <mxCell id="HJ7cx-dCD4smT8NFuNB5-1" value="门店运营" style="rounded=0;whiteSpace=wrap;html=1;labelBackgroundColor=none;fillColor=#f0a30a;strokeColor=#BD7000;fontColor=#FFFFFF;fontStyle=1" vertex="1" parent="1">
          <mxGeometry x="94" y="110" width="936" height="30" as="geometry" />
        </mxCell>
        <mxCell id="HJ7cx-dCD4smT8NFuNB5-3" value="销售" style="swimlane;whiteSpace=wrap;html=1;startSize=23;" vertex="1" parent="1">
          <mxGeometry x="94" y="220" width="106" height="200" as="geometry" />
        </mxCell>
        <mxCell id="HJ7cx-dCD4smT8NFuNB5-4" value="客户" style="swimlane;whiteSpace=wrap;html=1;" vertex="1" parent="1">
          <mxGeometry x="209" y="220" width="113" height="200" as="geometry" />
        </mxCell>
        <mxCell id="HJ7cx-dCD4smT8NFuNB5-5" value="市场表现" style="swimlane;whiteSpace=wrap;html=1;" vertex="1" parent="1">
          <mxGeometry x="330" y="220" width="106" height="200" as="geometry" />
        </mxCell>
        <mxCell id="HJ7cx-dCD4smT8NFuNB5-6" value="供应链" style="swimlane;whiteSpace=wrap;html=1;startSize=23;" vertex="1" parent="1">
          <mxGeometry x="448" y="220" width="106" height="200" as="geometry" />
        </mxCell>
        <mxCell id="HJ7cx-dCD4smT8NFuNB5-7" value="效率" style="swimlane;whiteSpace=wrap;html=1;startSize=23;" vertex="1" parent="1">
          <mxGeometry x="566" y="220" width="106" height="200" as="geometry" />
        </mxCell>
        <mxCell id="HJ7cx-dCD4smT8NFuNB5-8" value="产品" style="swimlane;whiteSpace=wrap;html=1;startSize=23;" vertex="1" parent="1">
          <mxGeometry x="684" y="220" width="106" height="200" as="geometry" />
        </mxCell>
        <mxCell id="HJ7cx-dCD4smT8NFuNB5-9" value="财务风险" style="swimlane;whiteSpace=wrap;html=1;startSize=23;" vertex="1" parent="1">
          <mxGeometry x="802" y="220" width="106" height="200" as="geometry" />
        </mxCell>
        <mxCell id="HJ7cx-dCD4smT8NFuNB5-14" value="质量" style="swimlane;whiteSpace=wrap;html=1;startSize=23;" vertex="1" parent="1">
          <mxGeometry x="920" y="220" width="106" height="200" as="geometry" />
        </mxCell>
        <mxCell id="HJ7cx-dCD4smT8NFuNB5-18" value="" style="shape=flexArrow;endArrow=classic;html=1;rounded=0;entryX=1;entryY=0;entryDx=0;entryDy=0;width=7;endSize=7;endWidth=16;" edge="1" parent="1">
          <mxGeometry width="50" height="50" relative="1" as="geometry">
            <mxPoint x="561.5" y="150" as="sourcePoint" />
            <mxPoint x="561.5" y="200" as="targetPoint" />
          </mxGeometry>
        </mxCell>
      </root>
    </mxGraphModel>
  </diagram>
</mxfile>
